<?xml version="1.0" standalone="no"?>
<!DOCTYPE svg PUBLIC "-//W3C//DTD SVG 20010904//EN"
 "http://www.w3.org/TR/2001/REC-SVG-20010904/DTD/svg10.dtd">
<svg version="1.0" xmlns="http://www.w3.org/2000/svg"
 width="565.000000pt" height="441.000000pt" viewBox="0 0 565.000000 441.000000"
 preserveAspectRatio="xMidYMid meet">

<g transform="translate(0.000000,441.000000) scale(0.100000,-0.100000)"
fill="#000000" stroke="none">
<path d="M1168 2582 l-598 -2 0 -425 0 -425 383 0 c3695 0 4121 1 4128 11 3 6
7 195 8 420 2 329 0 410 -11 414 -15 6 -3002 11 -3910 7z m403 -278 c46 -23
52 -38 25 -63 -23 -21 -25 -22 -54 -7 -48 25 -89 20 -123 -13 -38 -39 -39 -87
-3 -130 21 -26 33 -31 68 -31 23 0 52 7 64 16 22 15 25 15 48 -7 l25 -24 -30
-27 c-57 -51 -169 -46 -229 10 -35 33 -56 100 -49 156 15 112 149 175 258 120z
m479 1 c59 -30 90 -84 90 -157 0 -116 -108 -191 -227 -159 -73 20 -132 112
-120 187 7 43 42 100 73 121 51 33 128 36 184 8z m1600 0 c83 -43 113 -141 70
-229 -55 -114 -231 -128 -296 -24 -84 132 11 292 161 271 22 -3 51 -11 65 -18z
m-2610 -7 c118 -60 123 -209 11 -285 -30 -20 -46 -23 -142 -23 l-109 0 0 165
0 165 98 0 c82 0 105 -4 142 -22z m228 -140 l-3 -163 -42 -3 -43 -3 0 165 0
166 45 0 45 0 -2 -162z m477 -3 l0 -160 -42 -3 -43 -3 0 166 0 166 43 -3 42
-3 0 -160z m570 103 c28 -33 59 -74 70 -92 l20 -31 3 93 3 93 41 -3 40 -3 3
-145 c1 -79 0 -152 -3 -162 -3 -13 -14 -18 -38 -18 -27 0 -38 7 -60 38 -75
101 -107 142 -113 142 -4 0 -5 -40 -3 -90 l3 -90 -45 0 -46 0 0 165 0 165 38
-1 c33 0 43 -7 87 -61z m458 5 c14 -32 46 -103 71 -158 25 -55 46 -103 46
-107 0 -4 -18 -8 -40 -8 -36 0 -42 4 -57 35 l-17 35 -72 0 -73 0 -12 -35 c-12
-33 -16 -35 -56 -35 l-42 0 33 78 c19 43 51 118 72 165 l39 87 41 0 c41 0 42
-1 67 -57z m378 34 c56 -38 66 -118 20 -169 l-29 -32 27 -41 c46 -68 47 -65
-4 -65 -43 0 -47 2 -73 45 -23 39 -32 45 -59 45 -32 0 -33 -1 -33 -45 l0 -45
-45 0 -45 0 0 166 0 166 108 -4 c80 -3 114 -8 133 -21z m189 -142 l0 -165 -40
0 -40 0 0 165 0 165 40 0 40 0 0 -165z m830 139 c53 -31 82 -87 77 -152 -4
-56 -23 -91 -71 -126 -23 -18 -45 -22 -137 -24 l-109 -4 0 167 0 167 103 -4
c80 -3 110 -8 137 -24z m370 -9 l0 -35 -80 0 c-78 0 -80 -1 -80 -24 0 -29 16
-36 86 -36 53 0 54 0 54 -30 l0 -30 -70 0 -70 0 0 -35 0 -34 83 -3 82 -3 3
-32 3 -33 -125 0 -126 0 0 165 0 165 120 0 120 0 0 -35z m147 -75 c25 -58 46
-106 47 -108 2 -1 24 46 49 105 l46 108 41 3 c31 2 41 0 38 -10 -1 -7 -32 -82
-68 -165 l-65 -153 -41 0 -41 0 -33 78 c-18 42 -48 111 -67 153 -18 42 -33 82
-33 88 0 8 14 11 41 9 l42 -3 44 -105z"/>
<path d="M1901 2224 c-24 -20 -31 -34 -31 -61 0 -38 15 -71 39 -90 18 -14 90
-17 107 -5 24 17 44 59 44 93 0 47 -45 89 -95 89 -21 0 -45 -9 -64 -26z"/>
<path d="M3501 2224 c-26 -22 -31 -33 -31 -70 0 -60 32 -94 89 -94 61 0 96 35
96 95 0 39 -5 51 -28 71 -38 32 -86 32 -126 -2z"/>
<path d="M880 2156 l0 -96 56 0 c48 0 59 4 85 29 37 38 39 88 6 127 -20 23
-34 28 -85 32 l-62 4 0 -96z"/>
<path d="M2682 2182 c-12 -28 -22 -53 -22 -56 0 -3 21 -6 46 -6 42 0 45 1 38
23 -3 12 -14 37 -24 56 l-17 33 -21 -50z"/>
<path d="M3000 2200 l0 -50 43 0 c46 0 77 21 77 53 0 24 -40 47 -82 47 l-38 0
0 -50z"/>
<path d="M4000 2156 l0 -96 53 0 c62 0 91 17 107 64 22 67 -21 117 -105 124
l-55 4 0 -96z"/>
<path d="M236 2272 c-3 -5 3 -31 14 -58 82 -203 120 -308 120 -327 0 -12 -19
-65 -41 -117 -22 -52 -51 -124 -64 -160 -12 -36 -26 -73 -30 -82 -7 -17 8 -18
226 -18 142 0 229 4 224 9 -6 5 -62 41 -125 79 l-115 70 -5 303 -5 304 -97 3
c-53 1 -99 -1 -102 -6z"/>
<path d="M5225 2269 c-4 -6 -8 -140 -9 -298 -1 -157 -5 -292 -9 -298 -4 -6
-28 -23 -55 -39 -78 -45 -172 -109 -172 -116 0 -5 101 -8 225 -8 124 0 225 2
225 5 0 3 -26 67 -59 142 -32 76 -66 159 -76 186 l-18 47 38 98 c21 53 55 137
76 186 21 49 36 93 33 97 -8 13 -192 11 -199 -2z"/>
<path d="M680 1646 c0 -2 27 -20 60 -39 l60 -36 0 39 0 40 -60 0 c-33 0 -60
-2 -60 -4z"/>
<path d="M4857 1643 c-9 -9 -9 -61 1 -66 4 -3 34 13 67 34 l60 39 -61 0 c-33
0 -64 -3 -67 -7z"/>
</g>
</svg>
